<?xml version="1.0" standalone="no"?>
<!DOCTYPE svg PUBLIC "-//W3C//DTD SVG 20010904//EN"
 "http://www.w3.org/TR/2001/REC-SVG-20010904/DTD/svg10.dtd">
<svg version="1.0" xmlns="http://www.w3.org/2000/svg"
 width="200.000000pt" height="200.000000pt" viewBox="0 0 200.000000 200.000000"
 preserveAspectRatio="xMidYMid meet">
<metadata>
Created by potrace 1.14, written by Peter Selinger 2001-2017
</metadata>
<g transform="translate(0.000000,200.000000) scale(0.100000,-0.100000)"
fill="#000000" stroke="none">
<path d="M563 1857 c-49 -18 -72 -47 -78 -97 -7 -52 17 -101 63 -127 l27 -16
-3 -531 c-3 -482 -5 -532 -20 -543 -43 -32 -62 -57 -68 -89 -9 -48 1 -79 39
-120 40 -44 101 -55 160 -31 43 18 57 47 57 114 0 43 -4 51 -50 95 -45 43 -50
53 -50 91 0 24 5 48 12 55 8 8 58 12 159 12 132 0 148 -2 153 -17 3 -10 4 -71
2 -136 l-3 -118 -41 -35 c-53 -45 -69 -93 -50 -148 44 -132 248 -94 248 46 0
42 -32 94 -70 116 l-30 17 0 125 c0 69 4 132 10 140 7 11 29 14 100 12 139 -4
130 -14 130 147 0 93 -4 141 -12 149 -7 7 -38 12 -69 12 -54 0 -58 2 -67 29
-14 41 -55 64 -112 65 -41 1 -54 -4 -81 -29 -65 -62 -71 -141 -14 -195 55 -52
180 -30 205 35 8 20 16 25 44 25 19 0 38 -5 42 -11 9 -16 16 -119 9 -147 l-6
-24 -264 4 c-196 4 -268 8 -279 18 -14 11 -16 55 -16 334 0 237 3 325 12 334
9 9 73 12 228 12 l217 0 11 -25 c26 -56 112 -81 172 -50 49 26 70 61 70 122 0
47 -4 59 -29 84 -26 25 -37 29 -88 29 -71 0 -121 -26 -129 -69 l-6 -28 -121
-7 c-152 -8 -266 -8 -306 0 -30 6 -31 7 -31 65 0 54 2 59 24 65 39 9 68 48 73
98 5 38 1 53 -20 84 -24 37 -79 73 -109 71 -7 0 -28 -6 -45 -12z m78 -77 c22
-12 26 -59 7 -78 -19 -19 -66 -15 -78 7 -14 27 -13 47 6 65 18 19 38 20 65 6z
m617 -272 c15 -15 15 -61 0 -76 -31 -31 -88 -4 -88 42 0 37 61 61 88 34z
m-230 -520 c15 -15 15 -61 0 -76 -26 -26 -88 0 -88 36 0 40 61 67 88 40z
m-378 -537 c16 -31 12 -49 -15 -67 -23 -15 -27 -15 -50 0 -14 9 -25 25 -25 36
0 45 69 69 90 31z m378 -153 c31 -31 -5 -92 -49 -81 -37 10 -46 64 -15 85 17
12 51 9 64 -4z"/>
<path d="M331 1492 c-49 -26 -73 -75 -68 -136 3 -38 11 -55 31 -73 15 -13 33
-23 41 -23 23 0 28 -55 20 -222 l-7 -160 -39 -35 c-43 -39 -60 -83 -48 -127
26 -91 158 -141 214 -80 24 26 45 80 45 117 0 37 -30 88 -65 108 l-35 21 0
184 0 185 29 5 c115 23 111 191 -5 240 -45 19 -73 18 -113 -4z m96 -91 c21
-44 -23 -85 -67 -61 -23 12 -27 59 -8 78 20 20 61 10 75 -17z m-9 -613 c39
-39 -12 -103 -57 -72 -38 27 -22 84 24 84 12 0 26 -5 33 -12z"/>
<path d="M1550 1071 c-44 -14 -69 -34 -79 -63 -10 -27 -13 -28 -79 -28 -55 0
-71 -3 -76 -16 -3 -9 -6 -106 -6 -217 l0 -202 -36 -29 c-49 -39 -67 -84 -55
-137 12 -52 37 -78 86 -89 94 -21 165 32 165 123 0 39 -47 112 -79 122 -20 6
-21 14 -21 173 0 189 3 210 34 214 40 6 61 -4 88 -42 70 -100 214 -64 225 57
6 57 -8 96 -39 117 -29 19 -95 28 -128 17z m78 -83 c7 -7 12 -24 12 -38 0 -14
-5 -31 -12 -38 -28 -28 -88 -2 -88 38 0 40 60 66 88 38z m-246 -542 c14 -21 8
-55 -13 -69 -39 -28 -88 9 -74 54 11 35 67 44 87 15z"/>
</g>
</svg>
